<svg width="24" height="24" viewBox="0 0 24 24" fill="none" xmlns="http://www.w3.org/2000/svg">
<mask id="mask0_2375_2500" style="mask-type:alpha" maskUnits="userSpaceOnUse" x="0" y="0" width="24" height="24">
<rect x="24" y="24" width="24" height="24" rx="1" transform="rotate(-180 24 24)" fill="#1C1B1F"/>
</mask>
<g mask="url(#mask0_2375_2500)">
<path d="M11.2929 9.30711C11.6834 8.91658 12.3166 8.91658 12.7071 9.30711L17.3 13.9C17.6866 14.2866 17.6866 14.9134 17.3 15.3C16.9134 15.6866 16.2866 15.6866 15.9 15.3L12.7071 12.1071C12.3166 11.7166 11.6834 11.7166 11.2929 12.1071L8.1 15.3C7.7134 15.6866 7.0866 15.6866 6.7 15.3C6.3134 14.9134 6.3134 14.2866 6.7 13.9L11.2929 9.30711Z" fill="#1C1B1F"/>
</g>
</svg>
