<svg width="10" height="10" viewBox="0 0 10 10" fill="none" xmlns="http://www.w3.org/2000/svg">
<path d="M1.68984 8.86566C1.30324 9.25226 0.676443 9.25226 0.289844 8.86566C-0.0967558 8.47906 -0.0967556 7.85226 0.289844 7.46566L2.30288 5.45263C2.79223 4.96327 2.79085 4.16944 2.29979 3.68179L0.293503 1.68943C-0.0947195 1.30391 -0.0958139 0.676318 0.291063 0.289441C0.676989 -0.0964853 1.3027 -0.0964852 1.68862 0.289441L3.70288 2.30369C4.19223 2.79305 4.98607 2.79167 5.47372 2.30061L7.46729 0.293096C7.85214 -0.0944518 8.47864 -0.0955442 8.86484 0.29066C9.25105 0.676864 9.24996 1.30336 8.86241 1.68822L6.8549 3.68179C6.36384 4.16944 6.36245 4.96327 6.85181 5.45263L8.86606 7.46688C9.25199 7.85281 9.25199 8.47851 8.86606 8.86444C8.47919 9.25132 7.8516 9.25022 7.46607 8.862L5.47372 6.85571C4.98607 6.36465 4.19223 6.36327 3.70288 6.85263L1.68984 8.86566Z"/>
</svg>
